<mxfile host="app.diagrams.net" agent="Mozilla/5.0 (Windows NT 10.0; Win64; x64) AppleWebKit/537.36 (KHTML, like Gecko) Chrome/135.0.0.0 Safari/537.36" version="26.2.14">
  <diagram name="PÃ¡gina-1" id="4b4Ym12GW9kbFFodPvjR">
    <mxGraphModel dx="1426" dy="783" grid="1" gridSize="10" guides="1" tooltips="1" connect="1" arrows="1" fold="1" page="1" pageScale="1" pageWidth="827" pageHeight="1169" math="0" shadow="0">
      <root>
        <mxCell id="0" />
        <mxCell id="1" parent="0" />
        <mxCell id="pAfmM5fAZ-Ednwljp8Ch-1" value="Cliente" style="fontColor=#0066CC;verticalAlign=top;verticalLabelPosition=bottom;labelPosition=center;align=center;html=1;outlineConnect=0;fillColor=#CCCCCC;strokeColor=#6881B3;gradientColor=none;gradientDirection=north;strokeWidth=2;shape=mxgraph.networks.pc;fontStyle=1;fontSize=14;" vertex="1" parent="1">
          <mxGeometry x="364" y="20" width="100" height="70" as="geometry" />
        </mxCell>
        <mxCell id="pAfmM5fAZ-Ednwljp8Ch-2" value="Internet" style="ellipse;shape=cloud;whiteSpace=wrap;html=1;fillColor=light-dark(#FFFFFF,#3399FF);strokeColor=#6c8ebf;fillStyle=solid;fontSize=14;fontStyle=1" vertex="1" parent="1">
          <mxGeometry x="354" y="170" width="120" height="80" as="geometry" />
        </mxCell>
        <mxCell id="pAfmM5fAZ-Ednwljp8Ch-3" value="Servidor DNS" style="verticalLabelPosition=bottom;html=1;verticalAlign=top;align=center;strokeColor=none;fillColor=#00BEF2;shape=mxgraph.azure.server_rack;fontStyle=1;fontSize=14;fontColor=light-dark(#000000,#000000);" vertex="1" parent="1">
          <mxGeometry x="389" y="330" width="50" height="50" as="geometry" />
        </mxCell>
        <mxCell id="pAfmM5fAZ-Ednwljp8Ch-4" value="Server Principal" style="sketch=0;outlineConnect=0;fontColor=light-dark(#000000,#000000);fillColor=#6d8764;strokeColor=#3A5431;dashed=0;verticalLabelPosition=bottom;verticalAlign=top;align=center;html=1;fontSize=14;fontStyle=1;aspect=fixed;pointerEvents=1;shape=mxgraph.aws4.traditional_server;" vertex="1" parent="1">
          <mxGeometry x="237.5" y="650" width="45" height="78" as="geometry" />
        </mxCell>
        <mxCell id="pAfmM5fAZ-Ednwljp8Ch-5" value="internet" style="ellipse;shape=cloud;whiteSpace=wrap;html=1;fillColor=light-dark(#DAE8FC,#3399FF);fillStyle=solid;strokeColor=#6c8ebf;fontSize=14;fontStyle=1" vertex="1" parent="1">
          <mxGeometry x="200" y="480" width="120" height="80" as="geometry" />
        </mxCell>
        <mxCell id="pAfmM5fAZ-Ednwljp8Ch-6" value="Amazon EC2 (failover)" style="verticalLabelPosition=bottom;html=1;verticalAlign=top;align=center;strokeColor=none;fillColor=#00BEF2;shape=mxgraph.azure.server;fontSize=14;fontStyle=1;fontColor=light-dark(#000000,#000000);" vertex="1" parent="1">
          <mxGeometry x="540" y="512.5" width="50" height="15" as="geometry" />
        </mxCell>
        <mxCell id="pAfmM5fAZ-Ednwljp8Ch-8" value="" style="endArrow=none;dashed=1;html=1;rounded=0;entryX=0.5;entryY=1;entryDx=0;entryDy=0;entryPerimeter=0;strokeWidth=3;dashPattern=1 1;fillColor=#dae8fc;strokeColor=#6c8ebf;" edge="1" parent="1" source="pAfmM5fAZ-Ednwljp8Ch-2" target="pAfmM5fAZ-Ednwljp8Ch-1">
          <mxGeometry width="50" height="50" relative="1" as="geometry">
            <mxPoint x="180" y="210" as="sourcePoint" />
            <mxPoint x="230" y="160" as="targetPoint" />
          </mxGeometry>
        </mxCell>
        <mxCell id="pAfmM5fAZ-Ednwljp8Ch-9" value="" style="endArrow=none;dashed=1;html=1;rounded=0;exitX=0.5;exitY=0;exitDx=0;exitDy=0;exitPerimeter=0;fillColor=#dae8fc;strokeColor=#6c8ebf;strokeWidth=3;dashPattern=1 1;" edge="1" parent="1" source="pAfmM5fAZ-Ednwljp8Ch-3" target="pAfmM5fAZ-Ednwljp8Ch-2">
          <mxGeometry width="50" height="50" relative="1" as="geometry">
            <mxPoint x="424" y="180" as="sourcePoint" />
            <mxPoint x="424" y="100" as="targetPoint" />
          </mxGeometry>
        </mxCell>
        <mxCell id="pAfmM5fAZ-Ednwljp8Ch-11" value="" style="endArrow=none;dashed=1;html=1;rounded=0;entryX=0.01;entryY=0.99;entryDx=0;entryDy=0;entryPerimeter=0;exitX=0.558;exitY=0.15;exitDx=0;exitDy=0;exitPerimeter=0;strokeWidth=3;dashPattern=1 1;fillColor=#d5e8d4;strokeColor=#82b366;" edge="1" parent="1" source="pAfmM5fAZ-Ednwljp8Ch-5" target="pAfmM5fAZ-Ednwljp8Ch-3">
          <mxGeometry width="50" height="50" relative="1" as="geometry">
            <mxPoint x="180" y="410" as="sourcePoint" />
            <mxPoint x="230" y="360" as="targetPoint" />
          </mxGeometry>
        </mxCell>
        <mxCell id="pAfmM5fAZ-Ednwljp8Ch-12" value="" style="endArrow=none;dashed=1;html=1;rounded=0;entryX=0.5;entryY=0.925;entryDx=0;entryDy=0;entryPerimeter=0;fillColor=#d5e8d4;strokeColor=#82b366;strokeWidth=3;dashPattern=1 1;" edge="1" parent="1" source="pAfmM5fAZ-Ednwljp8Ch-4" target="pAfmM5fAZ-Ednwljp8Ch-5">
          <mxGeometry width="50" height="50" relative="1" as="geometry">
            <mxPoint x="120" y="590" as="sourcePoint" />
            <mxPoint x="170" y="540" as="targetPoint" />
          </mxGeometry>
        </mxCell>
        <mxCell id="pAfmM5fAZ-Ednwljp8Ch-13" value="" style="endArrow=none;dashed=1;html=1;rounded=0;entryX=0.99;entryY=0.99;entryDx=0;entryDy=0;entryPerimeter=0;exitX=0.5;exitY=0;exitDx=0;exitDy=0;exitPerimeter=0;strokeWidth=3;dashPattern=1 1;fillColor=#f8cecc;strokeColor=#b85450;" edge="1" parent="1" source="pAfmM5fAZ-Ednwljp8Ch-6" target="pAfmM5fAZ-Ednwljp8Ch-3">
          <mxGeometry width="50" height="50" relative="1" as="geometry">
            <mxPoint x="180" y="410" as="sourcePoint" />
            <mxPoint x="230" y="360" as="targetPoint" />
          </mxGeometry>
        </mxCell>
      </root>
    </mxGraphModel>
  </diagram>
</mxfile>
